<svg width="24" height="21" viewBox="0 0 24 21" fill="none" xmlns="http://www.w3.org/2000/svg">
<path d="M8.78348 8.41193H23.027C23.1575 8.41193 23.2643 8.30455 23.2643 8.1733V6.50284C23.2643 6.37159 23.1575 6.2642 23.027 6.2642H8.78348C8.65291 6.2642 8.54609 6.37159 8.54609 6.50284V8.1733C8.54609 8.30455 8.65291 8.41193 8.78348 8.41193ZM8.54609 14.4972C8.54609 14.6284 8.65291 14.7358 8.78348 14.7358H23.027C23.1575 14.7358 23.2643 14.6284 23.2643 14.4972V12.8267C23.2643 12.6955 23.1575 12.5881 23.027 12.5881H8.78348C8.65291 12.5881 8.54609 12.6955 8.54609 12.8267V14.4972ZM23.5017 0H0.237391C0.106826 0 0 0.107386 0 0.238636V1.90909C0 2.04034 0.106826 2.14773 0.237391 2.14773H23.5017C23.6323 2.14773 23.7391 2.04034 23.7391 1.90909V0.238636C23.7391 0.107386 23.6323 0 23.5017 0ZM23.5017 18.8523H0.237391C0.106826 18.8523 0 18.9597 0 19.0909V20.7614C0 20.8926 0.106826 21 0.237391 21H23.5017C23.6323 21 23.7391 20.8926 23.7391 20.7614V19.0909C23.7391 18.9597 23.6323 18.8523 23.5017 18.8523ZM0.902087 14.3808L5.54012 10.7088C5.57135 10.6841 5.59659 10.6527 5.61395 10.6167C5.63131 10.5808 5.64033 10.5414 5.64033 10.5015C5.64033 10.4616 5.63131 10.4222 5.61395 10.3862C5.59659 10.3503 5.57135 10.3189 5.54012 10.2942L0.902087 6.61918C0.729978 6.48196 0.474783 6.60426 0.474783 6.825V14.172C0.474767 14.2218 0.488697 14.2707 0.514982 14.3129C0.541267 14.3551 0.578844 14.3891 0.623419 14.4109C0.667993 14.4327 0.717765 14.4414 0.767045 14.4361C0.816324 14.4308 0.863121 14.4116 0.902087 14.3808Z" fill="#1E1E1E"/>
</svg>
