<svg width="18" height="24" viewBox="0 0 18 24" fill="none" xmlns="http://www.w3.org/2000/svg">
<path d="M7.20833 22.8333H11.375H7.20833ZM2 9.29167C2 7.3578 2.76823 5.50313 4.13568 4.13568C5.50313 2.76823 7.3578 2 9.29167 2C11.2255 2 13.0802 2.76823 14.4477 4.13568C15.8151 5.50313 16.5833 7.3578 16.5833 9.29167C16.584 10.4657 16.3001 11.6224 15.7558 12.6627C15.2116 13.7029 14.4232 14.5957 13.4583 15.2646L12.8938 17.9375C12.819 18.4302 12.5701 18.8797 12.1923 19.2046C11.8145 19.5295 11.3327 19.7082 10.8344 19.7083H7.74896C7.25064 19.7082 6.76887 19.5295 6.39103 19.2046C6.0132 18.8797 5.76433 18.4302 5.68958 17.9375L5.125 15.276C4.1598 14.6048 3.37143 13.7099 2.82724 12.6678C2.28306 11.6257 1.99923 10.4673 2 9.29167V9.29167Z" stroke="#53B6E0" stroke-width="2.08333" stroke-linecap="round" stroke-linejoin="round"/>
</svg>
