<svg width="43" height="38" viewBox="0 0 43 38" fill="none" xmlns="http://www.w3.org/2000/svg">
<path d="M15.8984 15.1465H41.6797C41.916 15.1465 42.1094 14.9531 42.1094 14.7168V11.709C42.1094 11.4727 41.916 11.2793 41.6797 11.2793H15.8984C15.6621 11.2793 15.4688 11.4727 15.4688 11.709V14.7168C15.4688 14.9531 15.6621 15.1465 15.8984 15.1465ZM15.4688 26.1035C15.4688 26.3398 15.6621 26.5332 15.8984 26.5332H41.6797C41.916 26.5332 42.1094 26.3398 42.1094 26.1035V23.0957C42.1094 22.8594 41.916 22.666 41.6797 22.666H15.8984C15.6621 22.666 15.4688 22.8594 15.4688 23.0957V26.1035ZM42.5391 0H0.429688C0.193359 0 0 0.193359 0 0.429688V3.4375C0 3.67383 0.193359 3.86719 0.429688 3.86719H42.5391C42.7754 3.86719 42.9688 3.67383 42.9688 3.4375V0.429688C42.9688 0.193359 42.7754 0 42.5391 0ZM42.5391 33.9453H0.429688C0.193359 33.9453 0 34.1387 0 34.375V37.3828C0 37.6191 0.193359 37.8125 0.429688 37.8125H42.5391C42.7754 37.8125 42.9688 37.6191 42.9688 37.3828V34.375C42.9688 34.1387 42.7754 33.9453 42.5391 33.9453ZM1.63281 25.894L10.0278 19.2822C10.0844 19.2378 10.1301 19.1811 10.1615 19.1164C10.1929 19.0518 10.2092 18.9808 10.2092 18.9089C10.2092 18.837 10.1929 18.7661 10.1615 18.7014C10.1301 18.6368 10.0844 18.5801 10.0278 18.5356L1.63281 11.9185C1.32129 11.6714 0.859375 11.8916 0.859375 12.2891V25.5181C0.859346 25.6078 0.884561 25.6957 0.932137 25.7717C0.979714 25.8478 1.04773 25.9089 1.12841 25.9481C1.20909 25.9874 1.29918 26.0031 1.38838 25.9935C1.47758 25.984 1.56228 25.9495 1.63281 25.894Z" fill="black"/>
</svg>
