<svg width="44" height="44" viewBox="0 0 44 44" fill="none" xmlns="http://www.w3.org/2000/svg">
<circle cx="22" cy="22" r="21" fill="#53B6E0" stroke="#CCCCCC" stroke-width="2"/>
<path d="M18 9V19" stroke="white" stroke-linecap="round" stroke-linejoin="round"/>
<path d="M13 14H23" stroke="white" stroke-linecap="round" stroke-linejoin="round"/>
<path d="M28.1816 14.1836C28.2396 14.1254 28.3086 14.0792 28.3845 14.0477C28.4605 14.0162 28.5419 14 28.6241 14C28.7063 14 28.7877 14.0162 28.8636 14.0477C28.9395 14.0792 29.0085 14.1254 29.0666 14.1836L32.8164 17.9334C32.8746 17.9915 32.9208 18.0605 32.9523 18.1364C32.9838 18.2123 33 18.2937 33 18.3759C33 18.4581 32.9838 18.5395 32.9523 18.6155C32.9208 18.6914 32.8746 18.7604 32.8164 18.8184L20.3169 31.3179C20.257 31.3774 20.1855 31.4242 20.1069 31.4554L13.8572 33.9552C13.7436 34.0007 13.6192 34.0118 13.4994 33.9873C13.3795 33.9627 13.2696 33.9035 13.1831 33.8169C13.0965 33.7304 13.0373 33.6205 13.0127 33.5006C12.9882 33.3808 12.9993 33.2564 13.0448 33.1428L15.5446 26.8931C15.5758 26.8145 15.6226 26.743 15.6821 26.6831L28.1816 14.1836ZM27.0079 17.126L29.874 19.9921L31.4902 18.3759L28.6241 15.5098L27.0079 17.126ZM28.9903 20.8758L26.1242 18.0097L17.9995 26.1343V26.5006H18.6245C18.7903 26.5006 18.9492 26.5664 19.0664 26.6836C19.1836 26.8008 19.2495 26.9598 19.2495 27.1255V27.7505H19.8745C20.0402 27.7505 20.1992 27.8164 20.3164 27.9336C20.4336 28.0508 20.4994 28.2097 20.4994 28.3755V29.0005H20.8657L28.9903 20.8758ZM16.7896 27.3443L16.6571 27.4768L14.7472 32.2528L19.5232 30.3429L19.6557 30.2104C19.5365 30.1659 19.4337 30.086 19.3611 29.9814C19.2885 29.8769 19.2496 29.7527 19.2495 29.6254V29.0005H18.6245C18.4588 29.0005 18.2998 28.9346 18.1826 28.8174C18.0654 28.7002 17.9995 28.5412 17.9995 28.3755V27.7505H17.3746C17.2473 27.7504 17.1231 27.7115 17.0186 27.6389C16.914 27.5663 16.8341 27.4635 16.7896 27.3443Z" fill="white"/>
</svg>
