<svg width="17" height="22" viewBox="0 0 17 22" fill="none" xmlns="http://www.w3.org/2000/svg">
<path d="M8.33333 21.3104C9.47917 21.3104 10.4167 20.3674 10.4167 19.2149H6.25C6.25 20.3674 7.1875 21.3104 8.33333 21.3104ZM14.5833 15.0238V9.78495C14.5833 6.5683 12.8854 3.87553 9.89583 3.16304V2.45056C9.89583 1.58091 9.19792 0.878906 8.33333 0.878906C7.46875 0.878906 6.77083 1.58091 6.77083 2.45056V3.16304C3.79167 3.87553 2.08333 6.55782 2.08333 9.78495V15.0238L0 17.1193V18.1671H16.6667V17.1193L14.5833 15.0238ZM12.5 16.0716H4.16667V9.78495C4.16667 7.18648 5.73958 5.06999 8.33333 5.06999C10.9271 5.06999 12.5 7.18648 12.5 9.78495V16.0716Z" fill="#1E1E1E"/>
</svg>
