<svg width="19" height="24" viewBox="0 0 19 24" fill="none" xmlns="http://www.w3.org/2000/svg">
<path d="M12.5 6.70459V20.2942L8.11458 18.3977L7.29167 18.0415L6.46875 18.3977L2.08333 20.2942V6.70459H12.5ZM16.6667 0.417969H6.23958C5.09375 0.417969 4.16667 1.36096 4.16667 2.51351H14.5833C15.7292 2.51351 16.6667 3.4565 16.6667 4.60905V18.2301L18.75 19.2778V2.51351C18.75 1.36096 17.8125 0.417969 16.6667 0.417969ZM12.5 4.60905H2.08333C0.9375 4.60905 0 5.55204 0 6.70459V23.4689L7.29167 20.3256L14.5833 23.4689V6.70459C14.5833 5.55204 13.6458 4.60905 12.5 4.60905Z" fill="#1E1E1E"/>
</svg>
