<svg width="20" height="20" viewBox="0 0 20 20" fill="none" xmlns="http://www.w3.org/2000/svg">
<path d="M18.75 1.75781H14.6484V0.195312C14.6484 0.0878906 14.5605 0 14.4531 0H13.0859C12.9785 0 12.8906 0.0878906 12.8906 0.195312V1.75781H6.64062V0.195312C6.64062 0.0878906 6.55273 0 6.44531 0H5.07812C4.9707 0 4.88281 0.0878906 4.88281 0.195312V1.75781H0.78125C0.349121 1.75781 0 2.10693 0 2.53906V18.75C0 19.1821 0.349121 19.5312 0.78125 19.5312H18.75C19.1821 19.5312 19.5312 19.1821 19.5312 18.75V2.53906C19.5312 2.10693 19.1821 1.75781 18.75 1.75781ZM17.7734 17.7734H1.75781V8.49609H17.7734V17.7734ZM1.75781 6.83594V3.51562H4.88281V4.6875C4.88281 4.79492 4.9707 4.88281 5.07812 4.88281H6.44531C6.55273 4.88281 6.64062 4.79492 6.64062 4.6875V3.51562H12.8906V4.6875C12.8906 4.79492 12.9785 4.88281 13.0859 4.88281H14.4531C14.5605 4.88281 14.6484 4.79492 14.6484 4.6875V3.51562H17.7734V6.83594H1.75781Z" fill="#616161"/>
</svg>
