<svg width="25" height="26" viewBox="0 0 25 26" fill="none" xmlns="http://www.w3.org/2000/svg">
<path d="M7.29232 14.9012C7.84485 14.9012 8.37476 14.6804 8.76546 14.2875C9.15616 13.8945 9.37565 13.3615 9.37565 12.8057C9.37565 12.2499 9.15616 11.7169 8.76546 11.3239C8.37476 10.9309 7.84485 10.7101 7.29232 10.7101C6.73978 10.7101 6.20988 10.9309 5.81918 11.3239C5.42848 11.7169 5.20898 12.2499 5.20898 12.8057C5.20898 13.3615 5.42848 13.8945 5.81918 14.2875C6.20988 14.6804 6.73978 14.9012 7.29232 14.9012Z" fill="#1E1E1E"/>
<path d="M14.5827 12.8057C14.5827 13.3615 14.3632 13.8945 13.9725 14.2875C13.5818 14.6804 13.0519 14.9012 12.4993 14.9012C11.9468 14.9012 11.4169 14.6804 11.0262 14.2875C10.6355 13.8945 10.416 13.3615 10.416 12.8057C10.416 12.2499 10.6355 11.7169 11.0262 11.3239C11.4169 10.9309 11.9468 10.7101 12.4993 10.7101C13.0519 10.7101 13.5818 10.9309 13.9725 11.3239C14.3632 11.7169 14.5827 12.2499 14.5827 12.8057Z" fill="#1E1E1E"/>
<path d="M17.7083 14.9012C18.2609 14.9012 18.7908 14.6804 19.1815 14.2875C19.5722 13.8945 19.7917 13.3615 19.7917 12.8057C19.7917 12.2499 19.5722 11.7169 19.1815 11.3239C18.7908 10.9309 18.2609 10.7101 17.7083 10.7101C17.1558 10.7101 16.6259 10.9309 16.2352 11.3239C15.8445 11.7169 15.625 12.2499 15.625 12.8057C15.625 13.3615 15.8445 13.8945 16.2352 14.2875C16.6259 14.6804 17.1558 14.9012 17.7083 14.9012Z" fill="#1E1E1E"/>
<path fill-rule="evenodd" clip-rule="evenodd" d="M25 12.8057C25 19.7492 19.4031 25.3789 12.5 25.3789C5.59687 25.3789 0 19.7492 0 12.8057C0 5.86209 5.59687 0.232422 12.5 0.232422C19.4031 0.232422 25 5.86209 25 12.8057ZM22.9167 12.8057C22.9167 18.5925 18.2531 23.2834 12.5 23.2834C6.74687 23.2834 2.08333 18.5925 2.08333 12.8057C2.08333 7.01883 6.74687 2.32796 12.5 2.32796C18.2531 2.32796 22.9167 7.01883 22.9167 12.8057Z" fill="#1E1E1E"/>
</svg>
