<svg width="21" height="17" viewBox="0 0 21 17" fill="none" xmlns="http://www.w3.org/2000/svg">
<path d="M18.75 0.160156H2.08333C0.934375 0.160156 0 1.10001 0 2.2557V14.8289C0 15.9846 0.934375 16.9245 2.08333 16.9245H18.75C19.899 16.9245 20.8333 15.9846 20.8333 14.8289V2.2557C20.8333 1.10001 19.899 0.160156 18.75 0.160156ZM18.75 2.2557V2.79111L10.4167 9.31138L2.08333 2.79216V2.2557H18.75ZM2.08333 14.8289V5.44511L9.77708 11.4645C9.95949 11.6087 10.1847 11.687 10.4167 11.687C10.6486 11.687 10.8738 11.6087 11.0562 11.4645L18.75 5.44511L18.7521 14.8289H2.08333Z" fill="#1E1E1E"/>
</svg>
