<svg width="25" height="17" viewBox="0 0 25 17" fill="none" xmlns="http://www.w3.org/2000/svg">
<path d="M13.8906 14.0156C13.5312 14.0156 13.2396 13.8958 13.0156 13.6563C12.7917 13.4115 12.6797 13.1068 12.6797 12.7422C12.6797 12.3724 12.7917 12.0677 13.0156 11.8281C13.2396 11.5833 13.5313 11.4609 13.8906 11.4609C14.2448 11.4609 14.5339 11.5807 14.7578 11.8203C14.9766 12.0599 15.0859 12.3672 15.0859 12.7422C15.0859 13.112 14.9766 13.4167 14.7578 13.6563C14.5339 13.8958 14.2448 14.0156 13.8906 14.0156ZM13.8906 8.87937C13.5313 8.87937 13.2396 8.75958 13.0156 8.52C12.7917 8.27521 12.6797 7.97052 12.6797 7.60594C12.6797 7.23615 12.7917 6.93146 13.0156 6.69187C13.2396 6.44708 13.5313 6.32469 13.8906 6.32469C14.2448 6.32469 14.5339 6.44448 14.7578 6.68406C14.9766 6.92365 15.0859 7.23094 15.0859 7.60594C15.0859 7.97573 14.9766 8.28042 14.7578 8.52C14.5339 8.75958 14.2448 8.87937 13.8906 8.87937ZM13.8906 3.74312C13.5313 3.74312 13.2396 3.62333 13.0156 3.38375C12.7917 3.13896 12.6797 2.83427 12.6797 2.46969C12.6797 2.0999 12.7917 1.79521 13.0156 1.55562C13.2396 1.31083 13.5313 1.18844 13.8906 1.18844C14.2448 1.18844 14.5339 1.30823 14.7578 1.54781C14.9766 1.7874 15.0859 2.09469 15.0859 2.46969C15.0859 2.83948 14.9766 3.14417 14.7578 3.38375C14.5339 3.62333 14.2448 3.74312 13.8906 3.74312Z" fill="#616161"/>
<path d="M17.8906 14.0156C17.5312 14.0156 17.2396 13.8958 17.0156 13.6563C16.7917 13.4115 16.6797 13.1068 16.6797 12.7422C16.6797 12.3724 16.7917 12.0677 17.0156 11.8281C17.2396 11.5833 17.5312 11.4609 17.8906 11.4609C18.2448 11.4609 18.5339 11.5807 18.7578 11.8203C18.9766 12.0599 19.0859 12.3672 19.0859 12.7422C19.0859 13.112 18.9766 13.4167 18.7578 13.6563C18.5339 13.8958 18.2448 14.0156 17.8906 14.0156ZM17.8906 8.87937C17.5313 8.87937 17.2396 8.75958 17.0156 8.52C16.7917 8.27521 16.6797 7.97052 16.6797 7.60594C16.6797 7.23615 16.7917 6.93146 17.0156 6.69187C17.2396 6.44708 17.5313 6.32469 17.8906 6.32469C18.2448 6.32469 18.5339 6.44448 18.7578 6.68406C18.9766 6.92365 19.0859 7.23094 19.0859 7.60594C19.0859 7.97573 18.9766 8.28042 18.7578 8.52C18.5339 8.75958 18.2448 8.87937 17.8906 8.87937ZM17.8906 3.74312C17.5313 3.74312 17.2396 3.62333 17.0156 3.38375C16.7917 3.13896 16.6797 2.83427 16.6797 2.46969C16.6797 2.0999 16.7917 1.79521 17.0156 1.55562C17.2396 1.31083 17.5313 1.18844 17.8906 1.18844C18.2448 1.18844 18.5339 1.30823 18.7578 1.54781C18.9766 1.7874 19.0859 2.09469 19.0859 2.46969C19.0859 2.83948 18.9766 3.14417 18.7578 3.38375C18.5339 3.62333 18.2448 3.74312 17.8906 3.74312Z" fill="#616161"/>
</svg>
