<svg width="24" height="22" viewBox="0 0 24 22" fill="none" xmlns="http://www.w3.org/2000/svg">
<path d="M8.78348 8.97719H23.027C23.1575 8.97719 23.2643 8.87265 23.2643 8.74488V7.11867C23.2643 6.9909 23.1575 6.88636 23.027 6.88636H8.78348C8.65291 6.88636 8.54609 6.9909 8.54609 7.11867V8.74488C8.54609 8.87265 8.65291 8.97719 8.78348 8.97719ZM8.54609 14.9012C8.54609 15.029 8.65291 15.1335 8.78348 15.1335H23.027C23.1575 15.1335 23.2643 15.029 23.2643 14.9012V13.275C23.2643 13.1473 23.1575 13.0427 23.027 13.0427H8.78348C8.65291 13.0427 8.54609 13.1473 8.54609 13.275V14.9012ZM23.5017 0.788086H0.237391C0.106826 0.788086 0 0.892628 0 1.0204V2.64661C0 2.77438 0.106826 2.87892 0.237391 2.87892H23.5017C23.6323 2.87892 23.7391 2.77438 23.7391 2.64661V1.0204C23.7391 0.892628 23.6323 0.788086 23.5017 0.788086ZM23.5017 19.141H0.237391C0.106826 19.141 0 19.2455 0 19.3733V20.9995C0 21.1273 0.106826 21.2318 0.237391 21.2318H23.5017C23.6323 21.2318 23.7391 21.1273 23.7391 20.9995V19.3733C23.7391 19.2455 23.6323 19.141 23.5017 19.141ZM0.902087 14.788L5.54012 11.2132C5.57135 11.1892 5.59659 11.1586 5.61395 11.1236C5.63131 11.0886 5.64033 11.0503 5.64033 11.0114C5.64033 10.9725 5.63131 10.9342 5.61395 10.8992C5.59659 10.8642 5.57135 10.8336 5.54012 10.8096L0.902087 7.23193C0.729978 7.09835 0.474783 7.21741 0.474783 7.4323V14.5847C0.474767 14.6332 0.488697 14.6807 0.514982 14.7219C0.541267 14.763 0.578844 14.796 0.623419 14.8172C0.667993 14.8384 0.717765 14.8469 0.767045 14.8418C0.816324 14.8366 0.863121 14.8179 0.902087 14.788Z" fill="#14223D"/>
</svg>
