<svg width="22" height="22" viewBox="0 0 22 22" fill="none" xmlns="http://www.w3.org/2000/svg">
<path d="M20.5853 10.8394L12.0611 1.81874L11.4898 1.21378C11.3596 1.07685 11.1835 1 11 1C10.8165 1 10.6405 1.07685 10.5103 1.21378L1.41483 10.8394C1.28143 10.9801 1.176 11.1477 1.10477 11.3322C1.03354 11.5168 0.997947 11.7146 1.00009 11.9139C1.00892 12.7361 1.65528 13.3924 2.43181 13.3924H3.36937V21H18.6307V13.3924H19.5881C19.9654 13.3924 20.3205 13.2359 20.5875 12.9533C20.7189 12.8146 20.823 12.6496 20.8938 12.468C20.9647 12.2864 21.0007 12.0917 21 11.8952C21 11.4981 20.8522 11.1221 20.5853 10.8394ZM12.2354 19.3183H9.76466V14.5533H12.2354V19.3183ZM17.0424 11.7107V19.3183H13.6473V13.9927C13.6473 13.4765 13.2524 13.0584 12.7649 13.0584H9.23521C8.74768 13.0584 8.3528 13.4765 8.3528 13.9927V19.3183H4.95771V11.7107H2.83992L11.0022 3.07538L11.5118 3.61494L19.1624 11.7107H17.0424Z" fill="#53B6E0" stroke="#53B6E0"/>
</svg>
