<svg width="24" height="23" viewBox="0 0 24 23" fill="none" xmlns="http://www.w3.org/2000/svg">
<path d="M22.6749 10.9541L13.2413 1.47016L12.609 0.834134C12.4649 0.690172 12.2701 0.609375 12.067 0.609375C11.8639 0.609375 11.6691 0.690172 11.525 0.834134L1.45909 10.9541C1.31146 11.102 1.19478 11.2782 1.11595 11.4722C1.03712 11.6662 0.997728 11.8742 1.0001 12.0837C1.00987 12.9482 1.7252 13.6382 2.58457 13.6382H3.62217V21.6365H20.5118V13.6382H21.5714C21.9889 13.6382 22.3819 13.4737 22.6773 13.1765C22.8228 13.0307 22.9381 12.8573 23.0164 12.6663C23.0948 12.4754 23.1347 12.2707 23.1339 12.0641C23.1339 11.6466 22.9703 11.2513 22.6749 10.9541ZM13.4342 19.8684H10.6998V14.8587H13.4342V19.8684ZM18.754 11.8701V19.8684H14.9967V14.2693C14.9967 13.7266 14.5597 13.287 14.0201 13.287H10.1139C9.57432 13.287 9.13731 13.7266 9.13731 14.2693V19.8684H5.37998V11.8701H3.03623L12.0694 2.79134L12.6334 3.35861L21.1002 11.8701H18.754Z" fill="#1E1E1E" stroke="#1E1E1E"/>
</svg>
