<svg width="22" height="22" viewBox="0 0 22 22" fill="none" xmlns="http://www.w3.org/2000/svg">
<path d="M12.9836 9.76698C12.1304 8.9141 10.9734 8.43498 9.76698 8.43498C8.56057 8.43498 7.40355 8.9141 6.55031 9.76698L3.3326 12.9836C2.47935 13.8369 2 14.9942 2 16.2008C2 17.4075 2.47935 18.5648 3.3326 19.418C4.18585 20.2713 5.34311 20.7506 6.54979 20.7506C7.75647 20.7506 8.91373 20.2713 9.76698 19.418L11.3753 17.8097" stroke="#616161" stroke-width="2.08333" stroke-linecap="round" stroke-linejoin="round"/>
<path d="M9.7666 12.9836C10.6198 13.8365 11.7769 14.3156 12.9833 14.3156C14.1897 14.3156 15.3467 13.8365 16.1999 12.9836L19.4176 9.76698C20.2709 8.91373 20.7502 7.75647 20.7502 6.54979C20.7502 5.34311 20.2709 4.18585 19.4176 3.3326C18.5644 2.47935 17.4071 2 16.2005 2C14.9938 2 13.8365 2.47935 12.9833 3.3326L11.3749 4.94094" stroke="#616161" stroke-width="2.08333" stroke-linecap="round" stroke-linejoin="round"/>
</svg>
