<svg width="23" height="22" viewBox="0 0 23 22" fill="none" xmlns="http://www.w3.org/2000/svg">
<path fill-rule="evenodd" clip-rule="evenodd" d="M19.7917 2.7889H3.125C2.84873 2.7889 2.58378 2.89929 2.38843 3.09578C2.19308 3.29228 2.08333 3.55878 2.08333 3.83667V18.5055C2.08333 18.7833 2.19308 19.0498 2.38843 19.2463C2.58378 19.4428 2.84873 19.5532 3.125 19.5532H19.7917C20.0679 19.5532 20.3329 19.4428 20.5282 19.2463C20.7236 19.0498 20.8333 18.7833 20.8333 18.5055V3.83667C20.8333 3.55878 20.7236 3.29228 20.5282 3.09578C20.3329 2.89929 20.0679 2.7889 19.7917 2.7889ZM3.125 0.693359C2.2962 0.693359 1.50134 1.02453 0.915291 1.61401C0.32924 2.2035 0 3.00301 0 3.83667V18.5055C0 19.3391 0.32924 20.1386 0.915291 20.7281C1.50134 21.3176 2.2962 21.6488 3.125 21.6488H19.7917C20.6205 21.6488 21.4153 21.3176 22.0014 20.7281C22.5874 20.1386 22.9167 19.3391 22.9167 18.5055V3.83667C22.9167 3.00301 22.5874 2.2035 22.0014 1.61401C21.4153 1.02453 20.6205 0.693359 19.7917 0.693359H3.125ZM5.20833 5.93221H7.29167V8.02775H5.20833V5.93221ZM10.4167 5.93221C10.1404 5.93221 9.87545 6.0426 9.6801 6.2391C9.48475 6.43559 9.375 6.70209 9.375 6.97998C9.375 7.25787 9.48475 7.52437 9.6801 7.72087C9.87545 7.91736 10.1404 8.02775 10.4167 8.02775H16.6667C16.9429 8.02775 17.2079 7.91736 17.4032 7.72087C17.5986 7.52437 17.7083 7.25787 17.7083 6.97998C17.7083 6.70209 17.5986 6.43559 17.4032 6.2391C17.2079 6.0426 16.9429 5.93221 16.6667 5.93221H10.4167ZM7.29167 10.1233H5.20833V12.2188H7.29167V10.1233ZM9.375 11.1711C9.375 10.8932 9.48475 10.6267 9.6801 10.4302C9.87545 10.2337 10.1404 10.1233 10.4167 10.1233H16.6667C16.9429 10.1233 17.2079 10.2337 17.4032 10.4302C17.5986 10.6267 17.7083 10.8932 17.7083 11.1711C17.7083 11.4489 17.5986 11.7155 17.4032 11.9119C17.2079 12.1084 16.9429 12.2188 16.6667 12.2188H10.4167C10.1404 12.2188 9.87545 12.1084 9.6801 11.9119C9.48475 11.7155 9.375 11.4489 9.375 11.1711ZM7.29167 14.3144H5.20833V16.4099H7.29167V14.3144ZM9.375 15.3621C9.375 15.0843 9.48475 14.8178 9.6801 14.6213C9.87545 14.4248 10.1404 14.3144 10.4167 14.3144H16.6667C16.9429 14.3144 17.2079 14.4248 17.4032 14.6213C17.5986 14.8178 17.7083 15.0843 17.7083 15.3621C17.7083 15.64 17.5986 15.9065 17.4032 16.103C17.2079 16.2995 16.9429 16.4099 16.6667 16.4099H10.4167C10.1404 16.4099 9.87545 16.2995 9.6801 16.103C9.48475 15.9065 9.375 15.64 9.375 15.3621Z" fill="#1E1E1E"/>
</svg>
