<svg width="17" height="21" viewBox="0 0 17 21" fill="none" xmlns="http://www.w3.org/2000/svg">
<path d="M8.33366 12.5C10.6316 12.5 12.5003 10.6313 12.5003 8.33334C12.5003 6.03542 10.6316 4.16667 8.33366 4.16667C6.03574 4.16667 4.16699 6.03542 4.16699 8.33334C4.16699 10.6313 6.03574 12.5 8.33366 12.5ZM8.33366 6.25001C9.48262 6.25001 10.417 7.18438 10.417 8.33334C10.417 9.4823 9.48262 10.4167 8.33366 10.4167C7.1847 10.4167 6.25033 9.4823 6.25033 8.33334C6.25033 7.18438 7.1847 6.25001 8.33366 6.25001Z" fill="#616161"/>
<path d="M7.72926 20.6396C7.90556 20.7655 8.11679 20.8332 8.33342 20.8332C8.55006 20.8332 8.76129 20.7655 8.93759 20.6396C9.25426 20.4156 16.697 15.0417 16.6668 8.33333C16.6668 3.73854 12.9282 0 8.33342 0C3.73863 0 9.1706e-05 3.73854 9.1706e-05 8.32812C-0.0301166 15.0417 7.41259 20.4156 7.72926 20.6396ZM8.33342 2.08333C11.7803 2.08333 14.5834 4.88646 14.5834 8.33854C14.6053 12.9615 10.0126 17.1125 8.33342 18.474C6.6553 17.1115 2.06155 12.9594 2.08342 8.33333C2.08342 4.88646 4.88655 2.08333 8.33342 2.08333Z" fill="#616161"/>
</svg>
