<svg width="23" height="22" viewBox="0 0 23 22" fill="none" xmlns="http://www.w3.org/2000/svg">
<path d="M10.0023 18.8155C12.0572 18.8151 14.0528 18.1163 15.6715 16.8304L20.7607 22L22.3977 20.3372L17.3085 15.1676C18.575 13.5232 19.2633 11.4956 19.2638 9.40774C19.2638 4.22055 15.1089 0 10.0023 0C4.89569 0 0.740723 4.22055 0.740723 9.40774C0.740723 14.5949 4.89569 18.8155 10.0023 18.8155ZM10.0023 2.35193C13.8331 2.35193 16.9484 5.51646 16.9484 9.40774C16.9484 13.299 13.8331 16.4635 10.0023 16.4635C6.17146 16.4635 3.05611 13.299 3.05611 9.40774C3.05611 5.51646 6.17146 2.35193 10.0023 2.35193Z" fill="#14223D"/>
</svg>
