<svg width="23" height="22" viewBox="0 0 23 22" fill="none" xmlns="http://www.w3.org/2000/svg">
<path d="M10.0018 18.8155C12.0567 18.8151 14.0523 18.1163 15.671 16.8304L20.7602 22L22.3972 20.3372L17.308 15.1676C18.5745 13.5232 19.2628 11.4956 19.2633 9.40774C19.2633 4.22055 15.1084 0 10.0018 0C4.8952 0 0.740234 4.22055 0.740234 9.40774C0.740234 14.5949 4.8952 18.8155 10.0018 18.8155ZM10.0018 2.35193C13.8326 2.35193 16.9479 5.51646 16.9479 9.40774C16.9479 13.299 13.8326 16.4635 10.0018 16.4635C6.17098 16.4635 3.05562 13.299 3.05562 9.40774C3.05562 5.51646 6.17098 2.35193 10.0018 2.35193Z" fill="#14223D"/>
</svg>
