<svg width="13" height="13" viewBox="0 0 13 13" fill="none" xmlns="http://www.w3.org/2000/svg">
<path d="M10.8333 9.02041C10.3187 9.02041 9.84389 9.18622 9.47194 9.46314L5.73083 6.97755C5.79348 6.66178 5.79348 6.33822 5.73083 6.02245L9.47194 3.53686C9.84389 3.81378 10.3187 3.97959 10.8333 3.97959C12.0286 3.97959 13 3.0875 13 1.9898C13 0.892092 12.0286 0 10.8333 0C9.63806 0 8.66667 0.892092 8.66667 1.9898C8.66667 2.18214 8.69556 2.3662 8.75153 2.54196L5.19819 4.90485C4.67097 4.26314 3.83319 3.84694 2.88889 3.84694C1.29278 3.84694 0 5.03418 0 6.5C0 7.96582 1.29278 9.15306 2.88889 9.15306C3.83319 9.15306 4.67097 8.73686 5.19819 8.09515L8.75153 10.458C8.69556 10.6338 8.66667 10.8195 8.66667 11.0102C8.66667 12.1079 9.63806 13 10.8333 13C12.0286 13 13 12.1079 13 11.0102C13 9.9125 12.0286 9.02041 10.8333 9.02041ZM10.8333 1.12755C11.3515 1.12755 11.7722 1.5139 11.7722 1.9898C11.7722 2.46569 11.3515 2.85204 10.8333 2.85204C10.3151 2.85204 9.89444 2.46569 9.89444 1.9898C9.89444 1.5139 10.3151 1.12755 10.8333 1.12755ZM2.88889 7.95918C2.01319 7.95918 1.3 7.30421 1.3 6.5C1.3 5.69579 2.01319 5.04082 2.88889 5.04082C3.76458 5.04082 4.47778 5.69579 4.47778 6.5C4.47778 7.30421 3.76458 7.95918 2.88889 7.95918ZM10.8333 11.8724C10.3151 11.8724 9.89444 11.4861 9.89444 11.0102C9.89444 10.5343 10.3151 10.148 10.8333 10.148C11.3515 10.148 11.7722 10.5343 11.7722 11.0102C11.7722 11.4861 11.3515 11.8724 10.8333 11.8724Z" fill="#616161"/>
</svg>
