<svg width="19" height="20" viewBox="0 0 19 20" fill="none" xmlns="http://www.w3.org/2000/svg">
<path d="M17.6392 15.8594C17.1787 14.7685 16.5103 13.7776 15.6714 12.9419C14.8351 12.1038 13.8444 11.4356 12.754 10.9741C12.7442 10.9692 12.7344 10.9668 12.7247 10.9619C14.2457 9.86328 15.2344 8.07373 15.2344 6.05469C15.2344 2.70996 12.5245 0 9.17975 0C5.83502 0 3.12506 2.70996 3.12506 6.05469C3.12506 8.07373 4.11383 9.86328 5.63483 10.9644C5.62506 10.9692 5.6153 10.9717 5.60553 10.9766C4.51178 11.438 3.53033 12.0996 2.68805 12.9443C1.84994 13.7807 1.18171 14.7714 0.720276 15.8618C0.266961 16.9293 0.0224779 18.0738 6.10498e-05 19.2334C-0.000590574 19.2595 0.00397981 19.2854 0.013503 19.3096C0.0230262 19.3339 0.0373095 19.356 0.0555113 19.3747C0.073713 19.3933 0.0954649 19.4082 0.119485 19.4183C0.143506 19.4284 0.169309 19.4336 0.195374 19.4336H1.66022C1.76764 19.4336 1.85309 19.3481 1.85553 19.2432C1.90436 17.3584 2.66119 15.5933 3.99908 14.2554C5.38336 12.8711 7.22174 12.1094 9.17975 12.1094C11.1378 12.1094 12.9761 12.8711 14.3604 14.2554C15.6983 15.5933 16.4551 17.3584 16.504 19.2432C16.5064 19.3506 16.5919 19.4336 16.6993 19.4336H18.1641C18.1902 19.4336 18.216 19.4284 18.24 19.4183C18.264 19.4082 18.2858 19.3933 18.304 19.3747C18.3222 19.356 18.3365 19.3339 18.346 19.3096C18.3555 19.2854 18.3601 19.2595 18.3594 19.2334C18.335 18.0664 18.0933 16.9312 17.6392 15.8594ZM9.17975 10.2539C8.05914 10.2539 7.00446 9.81689 6.211 9.02344C5.41754 8.22998 4.98053 7.17529 4.98053 6.05469C4.98053 4.93408 5.41754 3.87939 6.211 3.08594C7.00446 2.29248 8.05914 1.85547 9.17975 1.85547C10.3004 1.85547 11.355 2.29248 12.1485 3.08594C12.942 3.87939 13.379 4.93408 13.379 6.05469C13.379 7.17529 12.942 8.22998 12.1485 9.02344C11.355 9.81689 10.3004 10.2539 9.17975 10.2539Z" fill="#1E1E1E"/>
</svg>
