<svg width="4" height="15" viewBox="0 0 4 15" fill="none" xmlns="http://www.w3.org/2000/svg">
<path d="M1.99967 4.10808C2.91634 4.10808 3.66634 3.35369 3.66634 2.43165C3.66634 1.50961 2.91634 0.755219 1.99967 0.755219C1.08301 0.755219 0.333008 1.50961 0.333008 2.43165C0.333008 3.35369 1.08301 4.10808 1.99967 4.10808ZM1.99967 5.78451C1.08301 5.78451 0.333008 6.53891 0.333008 7.46095C0.333008 8.38298 1.08301 9.13738 1.99967 9.13738C2.91634 9.13738 3.66634 8.38298 3.66634 7.46095C3.66634 6.53891 2.91634 5.78451 1.99967 5.78451ZM1.99967 10.8138C1.08301 10.8138 0.333008 11.5682 0.333008 12.4902C0.333008 13.4123 1.08301 14.1667 1.99967 14.1667C2.91634 14.1667 3.66634 13.4123 3.66634 12.4902C3.66634 11.5682 2.91634 10.8138 1.99967 10.8138Z" fill="#1E1E1E"/>
</svg>
